<svg width="49" height="48" viewBox="0 0 49 48" fill="none" xmlns="http://www.w3.org/2000/svg">
<path fill-rule="evenodd" clip-rule="evenodd" d="M22.4857 15.0001C22.486 14.6386 22.5843 14.2839 22.7701 13.9737C22.9559 13.6636 23.2223 13.4096 23.5409 13.2389C23.8596 13.0681 24.2186 12.9868 24.5797 13.0038C24.9408 13.0208 25.2906 13.1354 25.5918 13.3353C25.893 13.5353 26.1344 13.8131 26.2903 14.1393C26.4462 14.4655 26.5107 14.8279 26.477 15.1878C26.4434 15.5478 26.3128 15.8919 26.0991 16.1835C25.8855 16.4752 25.5968 16.7035 25.2637 16.8441C24.1197 17.3281 22.4237 18.4521 21.7637 20.3361L4.83773 33.8761C1.88573 36.2401 3.55573 41.0001 7.33773 41.0001H41.6357C45.4157 41.0001 47.0857 36.2401 44.1337 33.8761L28.8857 21.6801C30.042 20.9187 30.9808 19.8702 31.6104 18.6373C32.2401 17.4043 32.539 16.0291 32.4779 14.646C32.4169 13.2629 31.998 11.9193 31.2621 10.7467C30.5263 9.57398 29.4987 8.61233 28.2799 7.95574C27.0611 7.29915 25.6927 6.97009 24.3086 7.00074C22.9245 7.03139 21.5721 7.4207 20.3835 8.13059C19.195 8.84049 18.211 9.84668 17.5278 11.0508C16.8445 12.2549 16.4855 13.6157 16.4857 15.0001C16.4857 15.7957 16.8018 16.5588 17.3644 17.1214C17.927 17.684 18.6901 18.0001 19.4857 18.0001C20.2814 18.0001 21.0444 17.684 21.607 17.1214C22.1697 16.5588 22.4857 15.7957 22.4857 15.0001ZM24.4857 25.8401L35.9337 35.0001H13.0377L24.4857 25.8401Z" fill="#727C61"/>
</svg>
