<?xml version="1.0" encoding="UTF-8"?><svg id="Layer_2" xmlns="http://www.w3.org/2000/svg" viewBox="0 0 746.58 303.98"><defs><style>.cls-1{fill:#727c61;}.cls-1,.cls-2{stroke-width:0px;}.cls-2{fill:#26211d;}</style></defs><g id="Buttons"><path class="cls-2" d="M37.13,167.16v-13.41H0v110.76h38.76v-50.79c0-9.65,2.45-16.62,7.34-20.91,4.9-4.28,11.29-6.43,19.17-6.43,1.36,0,2.72.03,4.08.1,1.36.07,2.92.24,4.69.51v-35.09c-10.47,0-19.35,2.11-26.62,6.32-4.04,2.34-7.46,5.33-10.3,8.93Z"/><path class="cls-2" d="M172.47,158.74c-8.91-4.55-18.8-6.83-29.68-6.83-11.7,0-22.13,2.45-31.31,7.34-9.18,4.9-16.39,11.66-21.62,20.3-5.24,8.64-7.85,18.53-7.85,29.68s2.68,20.64,8.06,29.27c5.37,8.64,12.92,15.44,22.64,20.4,9.72,4.97,21.18,7.45,34.37,7.45,10.47,0,19.58-1.53,27.33-4.59,7.75-3.06,14.21-7.45,19.38-13.16l-20.19-21.42c-3.81,3.26-7.62,5.68-11.42,7.24-3.81,1.57-8.5,2.35-14.07,2.35-5.85,0-10.88-1.05-15.09-3.16-4.22-2.11-7.45-5.13-9.69-9.08-.96-1.69-1.67-3.54-2.22-5.51h80.25c.13-1.49.27-3.13.41-4.9.13-1.77.2-3.33.2-4.69,0-12.24-2.69-22.61-8.06-31.11-5.37-8.5-12.51-15.02-21.42-19.58ZM120.46,198.62c.45-2.62,1.17-5.06,2.24-7.24,1.84-3.74,4.52-6.63,8.06-8.67,3.53-2.04,7.68-3.06,12.44-3.06s8.63,1.02,12.03,3.06c3.4,2.04,6.08,4.93,8.06,8.67,1.16,2.21,1.91,4.64,2.34,7.24h-45.17Z"/><path class="cls-2" d="M309.45,204.95c-3.81-2.38-8.03-4.18-12.65-5.41-4.63-1.22-9.28-2.14-13.97-2.75-4.69-.61-8.94-1.22-12.75-1.84-3.81-.61-6.94-1.49-9.39-2.65-2.45-1.15-3.67-2.82-3.67-5s1.39-3.98,4.18-5.41c2.79-1.43,7.45-2.14,13.97-2.14,4.76,0,9.86.54,15.3,1.63,5.44,1.09,10.88,3.26,16.32,6.53l11.63-26.52c-5.44-3.13-12.14-5.51-20.09-7.14s-15.81-2.45-23.56-2.45c-11.7,0-21.52,1.63-29.48,4.9s-14.01,7.65-18.15,13.16c-4.15,5.51-6.22,11.8-6.22,18.87,0,6.26,1.15,11.42,3.47,15.5,2.31,4.08,5.41,7.28,9.28,9.59,3.88,2.31,8.19,4.11,12.95,5.41,4.76,1.29,9.42,2.24,13.97,2.86,4.55.61,8.8,1.16,12.75,1.63,3.94.48,7.07,1.26,9.38,2.35,2.31,1.09,3.47,2.65,3.47,4.69,0,2.45-1.26,4.39-3.77,5.81-2.52,1.43-7.04,2.14-13.56,2.14s-13.46-.95-20.4-2.86c-6.94-1.9-13.05-4.42-18.36-7.55l-11.42,26.52c5.44,3.26,12.61,5.99,21.52,8.16,8.91,2.17,18.05,3.26,27.44,3.26,11.97,0,22.03-1.63,30.19-4.9,8.16-3.26,14.28-7.61,18.36-13.05,4.08-5.44,6.12-11.49,6.12-18.16s-1.19-11.59-3.57-15.6c-2.38-4.01-5.48-7.21-9.28-9.59Z"/><path class="cls-2" d="M436.02,158.95c-8.23-4.76-17.38-7.14-27.44-7.14s-18.19,2.07-24.78,6.22c-2.87,1.81-5.41,4.04-7.65,6.64v-11.03h-37.13v150.34h38.76v-49.44c2.03,2.12,4.27,3.95,6.73,5.48,6.66,4.15,14.69,6.22,24.07,6.22,10.06,0,19.21-2.31,27.44-6.94,8.23-4.62,14.75-11.22,19.58-19.79,4.83-8.57,7.24-18.63,7.24-30.19s-2.41-22-7.24-30.5c-4.83-8.5-11.36-15.13-19.58-19.89ZM420.51,223.41c-2.11,3.95-4.9,6.94-8.36,8.98-3.47,2.04-7.38,3.06-11.73,3.06s-8.26-1.02-11.73-3.06-6.26-5.03-8.36-8.98c-2.11-3.94-3.16-8.63-3.16-14.07,0-5.85,1.05-10.71,3.16-14.58,2.11-3.88,4.9-6.83,8.36-8.87,3.47-2.04,7.38-3.06,11.73-3.06s8.26,1.02,11.73,3.06c3.47,2.04,6.25,5,8.36,8.87,2.11,3.88,3.16,8.74,3.16,14.58,0,5.44-1.05,10.13-3.16,14.07Z"/><rect class="cls-2" x="480.79" y="153.64" width="38.76" height="110.76"/><path class="cls-2" d="M581.76,167.06v-13.41h-37.13v110.76h38.76v-50.79c0-9.65,2.45-16.62,7.34-20.91,4.9-4.28,11.29-6.43,19.17-6.43,1.36,0,2.72.03,4.08.1,1.36.07,2.92.24,4.69.51v-35.09c-10.47,0-19.35,2.11-26.62,6.32-4.04,2.34-7.46,5.33-10.3,8.93Z"/><path class="cls-2" d="M738.53,178.22c-5.37-8.5-12.51-15.02-21.42-19.58-8.91-4.55-18.8-6.83-29.68-6.83-11.7,0-22.13,2.45-31.31,7.34-9.18,4.9-16.39,11.66-21.62,20.3-5.24,8.64-7.85,18.53-7.85,29.68s2.68,20.64,8.06,29.27c5.37,8.64,12.92,15.44,22.64,20.4,9.72,4.97,21.18,7.45,34.37,7.45,10.47,0,19.58-1.53,27.33-4.59,7.75-3.06,14.21-7.45,19.38-13.16l-20.19-21.42c-3.81,3.26-7.62,5.68-11.42,7.24-3.81,1.57-8.5,2.35-14.07,2.35-5.85,0-10.88-1.05-15.09-3.16-4.22-2.11-7.45-5.13-9.69-9.08-.96-1.69-1.67-3.54-2.22-5.51h80.25c.13-1.49.27-3.13.41-4.9.13-1.77.2-3.33.2-4.69,0-12.24-2.69-22.61-8.06-31.11ZM665.1,198.52c.45-2.62,1.17-5.06,2.24-7.24,1.84-3.74,4.52-6.63,8.06-8.67,3.53-2.04,7.68-3.06,12.44-3.06s8.63,1.02,12.03,3.06c3.4,2.04,6.08,4.93,8.06,8.67,1.16,2.21,1.91,4.64,2.34,7.24h-45.18Z"/><path class="cls-1" d="M648.41,57.8l-27.99-50.81c-3.48-6.33-11.11-8.82-17.04-5.54l-103.98,57.26c-5.92,3.27-35.26,43.02-31.77,49.35l15.44,26.8c3.48,6.32,51.01.85,56.93-2.42l103.98-57.26c5.93-3.27,7.91-11.04,4.43-17.37ZM509.46,115.31c-2.33,2.22-5.46,3.33-9.37,3.33-4.2,0-7.47-1.22-9.85-3.68-2.1-2.18-3.17-5.24-2.99-8.26,0-.06.01-.13.02-.19.2-2.75,1.35-5.1,3.45-6.99,2.33-2.1,5.45-3.15,9.37-3.15,4.81,0,8.47,1.58,10.98,4.72,1.09,1.38,1.71,3.11,1.84,4.86.01.26.02.51.02.75.08,3.46-1.08,6.33-3.47,8.62Z"/></g></svg>