<svg width="49" height="48" viewBox="0 0 49 48" fill="none" xmlns="http://www.w3.org/2000/svg">
<path d="M21.6508 5.21683C15.4765 5.76204 10.1448 8.87045 6.66109 13.9614C5.24496 16.029 4.17579 18.578 3.63766 21.1483C3.11369 23.6761 3.10661 26.7066 3.63766 29.2202C4.06958 31.3019 4.74224 33.1075 5.76893 34.9343C7.28419 37.6391 9.45795 40.0182 12.0211 41.76C13.0408 42.4539 14.5914 43.2965 15.519 43.6647L15.9013 43.8134L15.8588 43.2257C15.6323 40.3298 15.7243 39.1402 16.3403 36.6195C16.397 36.3858 16.6519 35.3025 16.9068 34.2121C17.1617 33.1217 17.4378 31.9604 17.5157 31.6276C17.5936 31.2948 17.7423 30.6718 17.8414 30.2469C17.9406 29.815 18.0963 29.1777 18.1813 28.8237L18.3371 28.1864L18.1388 27.5846C17.1121 24.4903 18.1813 21.2191 20.4825 20.4402C21.1269 20.2207 21.9765 20.2632 22.5501 20.5393C23.5343 21.0067 24.0653 22.2529 23.8883 23.6761C23.775 24.5966 23.5909 25.3188 22.8899 27.5917C22.3093 29.461 22.1606 30.1336 22.196 30.7072C22.2173 31.1108 22.281 31.3444 22.4509 31.6984C23.2652 33.412 25.3823 33.8864 27.4994 32.8243C28.0022 32.5764 28.8802 31.8755 29.2483 31.4294C30.3388 30.1265 31.1318 28.144 31.3867 26.1047C31.4788 25.3471 31.4788 23.3008 31.3867 22.7485C31.1884 21.559 30.6291 20.1853 30.006 19.3427C28.427 17.2327 26.0691 16.121 23.1661 16.121C20.4896 16.121 18.3583 16.9495 16.6519 18.663C15.0163 20.2915 14.1595 22.3803 14.1524 24.724C14.1453 26.3667 14.6339 27.9953 15.4836 29.1848C15.6464 29.4114 15.7385 29.6167 15.7385 29.7583C15.7385 30.0203 15.2782 31.9746 15.1366 32.3145C15.0092 32.6118 14.7826 32.626 14.2869 32.364C12.7434 31.5498 11.4264 29.6097 10.782 27.2093C10.1164 24.7311 10.4634 21.7147 11.7096 19.2153C13.4514 15.7174 16.7298 13.4445 21.049 12.7506C21.488 12.6869 22.3943 12.6232 23.2794 12.6019C24.9716 12.5665 26.055 12.6869 27.4357 13.0763C30.7211 14.011 33.3764 16.1493 34.8279 19.0241C35.7555 20.8651 36.1307 22.8618 35.9891 25.1418C35.9112 26.2959 35.9042 26.388 35.6988 27.3792C34.7783 31.7976 31.9319 35.1821 28.2358 36.2584C27.4003 36.4991 26.7135 36.5912 25.7576 36.5983C24.5326 36.5983 23.5838 36.3717 22.6279 35.8335C22.1252 35.5574 21.226 34.7502 21.1481 34.5165C21.0773 34.29 21.0206 34.4387 20.7374 35.5291C20.6029 36.053 20.348 37.0514 20.1639 37.7524C19.9798 38.4534 19.7249 39.3597 19.5833 39.7704C19.3213 40.5705 18.3088 42.6876 17.7281 43.6647C17.5299 43.9975 17.367 44.2808 17.367 44.302C17.367 44.4294 19.7744 44.9534 21.0136 45.095C22.0119 45.2083 24.4689 45.2083 25.4744 45.095C29.1846 44.6702 32.7037 43.2116 35.6847 40.8608C36.6051 40.1386 38.2903 38.4321 39.0126 37.4975C41.2854 34.5732 42.7299 31.0258 43.1052 27.4501C43.2397 26.2251 43.2397 24.1434 43.1052 22.9184C42.7299 19.3427 41.2854 15.7953 39.0126 12.871C38.2903 11.9364 36.6051 10.2299 35.6847 9.5077C32.7391 7.18525 29.1846 5.69831 25.5806 5.28764C24.6318 5.18143 22.4934 5.14602 21.6508 5.21683Z" fill="#727C61"/>
</svg>
